<?xml version="1.0"?>
<svg xmlns="http://www.w3.org/2000/svg" height="512px" viewBox="-45 0 438 438" width="512px" class=""><g><path d="m340.71875 53.078125v166.792969l-34.507812-18.769532c-31.207032-16.992187-69.457032-14.210937-97.882813 7.109376-28.417969 21.316406-66.660156 24.097656-97.867187 7.117187l-34.5-18.777344v-166.789062l34.5 18.777343c31.207031 16.984376 69.457031 14.199219 97.878906-7.117187 28.425781-21.324219 66.671875-24.101563 97.878906-7.113281zm0 0" fill="#00efd1" data-original="#00EFD1" class="" style="fill:#C12020" data-old_color="#00efd1"/><path d="m30.648438 8.179688h45.300781v421.640624h-45.300781zm0 0" fill="#00acea" data-original="#00ACEA" class="active-path" data-old_color="#00acea" style="fill:#FEFFFF"/><path d="m75.949219 0h-45.300781c-4.507813.0625-8.167969 3.671875-8.289063 8.179688v413.820312h-14.359375c-4.417969 0-8 3.582031-8 8s3.582031 8 8 8h90.601562c4.417969 0 8-3.582031 8-8s-3.582031-8-8-8h-14.242187v-211.992188l22.484375 12.351563c33.902344 18.472656 75.46875 15.445313 106.335938-7.75 25.929687-19.390625 60.773437-21.921875 89.234374-6.480469l34.5 18.769532c2.410157 1.347656 5.363282 1.289062 7.722657-.152344 2.378906-1.464844 3.796875-4.082032 3.722656-6.875v-166.792969c.074219-2.902344-1.46875-5.605469-4-7.023437l-34.398437-18.769532c-33.933594-18.488281-75.535157-15.464844-106.441407 7.734375-25.855469 19.390625-60.640625 21.929688-89.035156 6.496094l-30.125-16.515625v-16.820312c-.175781-4.53125-3.875-8.1289068-8.410156-8.179688zm8.410156 43.222656 22.476563 12.34375c33.9375 18.417969 75.488281 15.390625 106.402343-7.746094 25.820313-19.441406 60.628907-21.976562 89-6.484374l30.121094 16.5v148.574218l-22.5-12.335937c-33.9375-18.429688-75.5-15.40625-106.417969 7.734375-25.816406 19.4375-60.617187 21.976562-88.980468 6.492187l-30.101563-16.5zm-46 378.777344v-406h30v406zm0 0" fill="#083863" data-original="#083863" class="" data-old_color="#083863" style="fill:#0E2A47"/></g> </svg>
