<?xml version="1.0"?>
<svg xmlns="http://www.w3.org/2000/svg" xmlns:xlink="http://www.w3.org/1999/xlink" version="1.1" id="Layer_1" x="0px" y="0px" viewBox="0 0 390.206 390.206" style="enable-background:new 0 0 390.206 390.206;" xml:space="preserve" width="512px" height="512px" class=""><g><path style="fill:#FFFFFF" d="M32.517,339.491h325.172c5.948,0,10.861-4.848,10.861-10.861V108.638  c0-5.947-4.849-10.861-10.861-10.861H32.517c-5.947,0-10.861,4.848-10.861,10.861v220.057  C21.657,334.642,26.57,339.491,32.517,339.491z" data-original="#FFFFFF" class="" data-old_color="#FFFFFF"/><rect x="43.378" y="119.499" style="fill:#EFBE44" width="303.515" height="198.335" data-original="#FFC10D" class="active-path" data-old_color="#FFC10D"/><path style="fill:#FFFFFF" d="M195.103,135.725c-46.093,0-82.941,37.366-82.941,82.941c0,46.093,37.366,82.941,82.941,82.941  c46.093,0,82.941-37.366,82.941-82.941S241.196,135.725,195.103,135.725z" data-original="#FFFFFF" class="" data-old_color="#FFFFFF"/><g>
	<path style="fill:#EFBE44" d="M195.103,179.103c-21.657,0-39.564,17.907-39.564,39.564s17.907,39.564,39.564,39.564   s39.564-17.907,39.564-39.564S216.76,179.103,195.103,179.103z" data-original="#56ACE0" class="" data-old_color="#56ACE0"/>
	<polygon style="fill:#EFBE44" points="151.725,50.133 139.766,76.121 250.958,76.121 238.998,50.133  " data-original="#56ACE0" class="" data-old_color="#56ACE0"/>
</g><g>
	<path style="fill:#D8842A" d="M357.689,76.121H274.23l-18.424-41.18c-1.616-3.814-5.43-6.529-9.762-6.529H144.679   c-4.331,0-8.145,2.715-9.762,6.529l-18.941,41.762H32.517C14.61,76.703,0,91.313,0,109.22v220.057   c0,17.907,14.61,32.517,32.517,32.517h325.172c17.907,0,32.517-14.61,32.517-32.517V108.638   C390.206,90.731,375.596,76.121,357.689,76.121z M151.725,50.133h87.273l11.895,25.988H139.83L151.725,50.133z M21.657,163.394   h84.558c-10.279,16.291-15.709,35.232-15.709,55.273s5.947,39.046,15.709,55.273H21.657V163.394z M368.549,328.695   c0,5.947-4.849,10.861-10.861,10.861H32.517c-5.947,0-10.861-4.848-10.861-10.861v-33.034h102.4   c18.424,17.325,43.378,27.669,70.982,27.669c27.087,0,52.04-10.861,70.982-27.669h102.4v33.034H368.549z M112.162,218.667   c0-46.093,37.366-82.941,82.941-82.941c46.093,0,82.941,37.366,82.941,82.941c0,46.093-37.366,82.941-82.941,82.941   C149.01,301.608,112.162,264.695,112.162,218.667z M368.549,273.939h-84.558c10.279-16.291,15.709-35.232,15.709-55.273   s-5.947-39.046-15.709-55.273h84.558V273.939z M368.549,141.673H266.085c-18.424-17.325-43.378-27.669-70.982-27.669   c-27.087,0-52.04,10.861-70.982,27.669H21.657v-33.034c0-5.947,4.848-10.861,10.861-10.861h325.172   c5.948,0,10.861,4.848,10.861,10.861V141.673z" data-original="#194F82" class="" data-old_color="#194F82"/>
	<path style="fill:#D8842A" d="M195.103,279.887c33.616,0,61.22-27.669,61.22-61.22s-27.604-61.22-61.22-61.22   s-61.22,27.669-61.22,61.22C133.883,252.8,161.487,279.887,195.103,279.887z M195.103,179.103   c21.657,0,39.564,17.907,39.564,39.564s-17.907,39.564-39.564,39.564s-39.564-17.907-39.564-39.564   S173.446,179.103,195.103,179.103z" data-original="#194F82" class="" data-old_color="#194F82"/>
</g></g> </svg>
