<?xml version="1.0" encoding="iso-8859-1"?>
<!-- Generator: Adobe Illustrator 19.0.0, SVG Export Plug-In . SVG Version: 6.00 Build 0)  -->
<svg version="1.1" id="Layer_1" xmlns="http://www.w3.org/2000/svg" xmlns:xlink="http://www.w3.org/1999/xlink" x="0px" y="0px"
	 viewBox="0 0 512 512" style="enable-background:new 0 0 512 512;" xml:space="preserve">
<path style="fill:#E79D2E;" d="M170.387,507.104l-82.745-82.745l118.207-118.207l82.745,82.745c6.529,6.529,6.529,17.113,0,23.641
	l-94.566,94.566C187.499,513.632,176.915,513.632,170.387,507.104z"/>
<path style="fill:#EFBE44;" d="M454.084,81.557l-47.283-47.283c-45.699-45.699-119.791-45.699-165.49,0
	c-41.675,41.675-45.215,106.897-10.881,152.729L28.538,388.896c-6.529,6.529-6.529,17.113,0,23.641l47.283,47.284
	c6.529,6.529,17.113,6.529,23.641,0l201.893-201.893c45.834,34.333,111.055,30.794,152.729-10.881
	C499.784,201.349,499.784,127.257,454.084,81.557z M406.801,199.764L406.801,199.764c-19.586,19.586-51.339,19.586-70.925,0
	l-47.283-47.284c-19.586-19.585-19.586-51.339,0-70.925l0,0c19.585-19.585,51.339-19.585,70.924,0l47.284,47.284
	C426.386,148.425,426.386,180.18,406.801,199.764z"/>
<path style="fill:#D8842A;" d="M229.49,471.641l-35.462-35.462c-6.529-6.529-6.529-17.113,0-23.641l0,0
	c6.529-6.529,17.113-6.529,23.641,0L253.131,448L229.49,471.641z"/>
<path style="fill:#E4A738;" d="M454.084,81.557l-23.641-23.641l-47.283,47.284l23.641,23.641c19.586,19.586,19.586,51.339,0,70.925
	l0,0c-19.586,19.586-51.339,19.586-70.925,0l-23.641-23.641L52.179,436.179L75.82,459.82c6.529,6.529,17.113,6.529,23.641,0
	l201.893-201.893c45.834,34.333,111.055,30.794,152.729-10.881C499.784,201.349,499.784,127.257,454.084,81.557z"/>
<g>
</g>
<g>
</g>
<g>
</g>
<g>
</g>
<g>
</g>
<g>
</g>
<g>
</g>
<g>
</g>
<g>
</g>
<g>
</g>
<g>
</g>
<g>
</g>
<g>
</g>
<g>
</g>
<g>
</g>
</svg>
