<?xml version="1.0"?>
<svg xmlns="http://www.w3.org/2000/svg" xmlns:xlink="http://www.w3.org/1999/xlink" version="1.1" id="Capa_1" x="0px" y="0px" viewBox="0 0 512 512" style="enable-background:new 0 0 512 512;" xml:space="preserve" width="512px" height="512px" class=""><g><path style="fill:#E4A738" d="M497,441H15c-8.284,0-15-6.716-15-15V86c0-8.284,6.716-15,15-15h482c8.284,0,15,6.716,15,15v340  C512,434.284,505.284,441,497,441z" data-original="#F79B00" class="" data-old_color="#F79B00"/><path style="fill:#D8842A" d="M497,71H256v370h241c8.284,0,15-6.716,15-15V86C512,77.716,505.284,71,497,71z" data-original="#F28300" class="active-path" data-old_color="#F28300"/><path style="fill:#EFBE44" d="M512,86c0-8.284-6.716-15-15-15H15C6.716,71,0,77.716,0,86v7.775l247.354,174.482  c5.18,3.654,12.104,3.659,17.292,0L512,93.775V86z" data-original="#FBB200" class="" data-old_color="#FBB200"/><path style="fill:#FFFFF2" d="M146.599,381H75c-8.284,0-15-6.716-15-15s6.716-15,15-15h71.599c8.284,0,15,6.716,15,15  S154.883,381,146.599,381z" data-original="#FFFFF2" class="" data-old_color="#FFFFF2"/><path style="fill:#E4A738" d="M497,71H256v200c3.026,0,6.053-0.913,8.646-2.742L512,93.775V86C512,77.716,505.284,71,497,71z" data-original="#F79B00" class="" data-old_color="#F79B00"/></g> </svg>
