<?xml version="1.0"?>
<svg xmlns="http://www.w3.org/2000/svg" viewBox="0 0 64 64" width="512px" height="512px" class="hovered-paths"><g><g id="map"><path d="M32,3,12,12.33,3,3V42l5-2,4,5h3l5-2,2,7-4,8,14-7L52,61l9-9V48l-5-8,2-7V29l-2-5V17l5-7V3l-9,9.33ZM15,40l-3-1L9,34l3-1,4,3Zm13,6-3-1-1-5,4,2Zm7-8,2-4-5-2-5,5-4-5H18l-6-5L7,30V20l5-4,4-1,6-2,6,4,4-7h3l7,4,1,9,5,5V41L38,49l2-5ZM49,55l-6-3V49h3l1-3,2,3Z" style="fill:#FBE4E4" data-original="#78B9EB" class="" data-old_color="#78B9EB"/><path d="M61.374,2.073a1,1,0,0,0-1.094.233l-8.505,8.817L32.423,2.094a1,1,0,0,0-.846,0L12.225,11.123,3.72,2.306A1,1,0,0,0,2,3V52a1,1,0,0,0,.293.707l9,9a1,1,0,0,0,1.154.188L32,52.118,51.553,61.9A1.011,1.011,0,0,0,52,62a1,1,0,0,0,.707-.293l9-9A1,1,0,0,0,62,52V3A1,1,0,0,0,61.374,2.073ZM58.929,28.628,57,23.808V17.32l3-4.2V44.513l-2.916-4.666,1.878-6.572A1.02,1.02,0,0,0,59,33V29A1.012,1.012,0,0,0,58.929,28.628ZM40.769,43.36l-4.582-5.5L37.9,34.447a1,1,0,0,0-.524-1.376L33,31.323V11h1.734l6.329,3.616.943,8.494a1,1,0,0,0,.287.6L47,28.414V40.52l-6.663,5.33.592-1.478A1.006,1.006,0,0,0,40.769,43.36ZM13,16.78l3.316-.831L21.853,14.1l5.592,3.728a1,1,0,0,0,1.423-.336L31,13.765V31.586L27.083,35.5l-3.3-4.128A1,1,0,0,0,23,31H18.362L13,26.531ZM31,9.735l-3.337,5.839-5.108-3.406a1,1,0,0,0-.871-.117L15.758,14.03,13,14.719V12.968l18-8.4Zm-20,16.7-3,1.8V20.48l3-2.4Zm0,8.956-.5-.835.5-.167ZM13,35l1.869,1.4-.577,2.308L13,38.279Zm0,11h2a1,1,0,0,0,.371-.071l3.972-1.589L20.932,49.9l-3.677,7.354L13,59.382Zm9.9,4.447a1.008,1.008,0,0,0,.067-.722l-2-7a1,1,0,0,0-1.333-.654L14.808,44H13V40.388l1.684.561A1.01,1.01,0,0,0,15,41a1,1,0,0,0,.97-.757l1-4A1,1,0,0,0,16.6,35.2L13,32.5V29.135l4.359,3.633A1,1,0,0,0,18,33h4.52l3.7,4.625a1,1,0,0,0,.725.374.981.981,0,0,0,.763-.292L31,34.414V50.382L20.236,55.764ZM33,33.477l2.619,1.048L34.1,37.553a1,1,0,0,0,.126,1.087l4.62,5.542-1.78,4.446a1,1,0,0,0,1.554,1.153l10-8A1,1,0,0,0,49,41V28a1,1,0,0,0-.293-.707l-4.752-4.752-.961-8.651a1,1,0,0,0-.5-.758l-7-4A.993.993,0,0,0,35,9H33V4.57l18,8.4V59.382l-18-9ZM11,12.734v2.785l-4.625,3.7A1,1,0,0,0,6,20V30a1,1,0,0,0,1.515.857L11,28.766v3.513l-2.316.772a1,1,0,0,0-.541,1.464L11,39.277v2.872L8.781,39.375a1,1,0,0,0-1.152-.3L4,40.523V5.477ZM4,42.677,7.683,41.2,11,45.351V58.586l-7-7ZM53,58.586V12.734l7-7.257v4.2l-4.813,6.739A.994.994,0,0,0,55,17v7a1.012,1.012,0,0,0,.071.372L57,29.192V32.86l-1.962,6.865a1,1,0,0,0,.114.8L60,48.286v3.3Z" style="fill:#374957" data-original="#1A6FB0" class="active-path" data-old_color="#1A6FB0"/><path d="M49.832,48.445l-2-3a1,1,0,0,0-1.78.239L45.279,48H43a1,1,0,0,0-1,1v3a1,1,0,0,0,.553.9l6,3A1,1,0,0,0,50,55V49A1.006,1.006,0,0,0,49.832,48.445ZM48,53.382l-4-2V50h2a1,1,0,0,0,.948-.684l.354-1.06L48,49.3Z" style="fill:#374957" data-original="#1A6FB0" class="active-path" data-old_color="#1A6FB0"/><path d="M28.447,41.105l-4-2A1,1,0,0,0,23.02,40.2l1,5a1,1,0,0,0,.664.753l3,1A1.01,1.01,0,0,0,28,47a1,1,0,0,0,1-1V42A1,1,0,0,0,28.447,41.105ZM27,44.613l-1.133-.378-.485-2.426L27,42.618Z" style="fill:#374957" data-original="#1A6FB0" class="active-path" data-old_color="#1A6FB0"/></g></g> </svg>
